<svg clip-rule="evenodd" fill-rule="evenodd" height="512" image-rendering="optimizeQuality" shape-rendering="geometricPrecision" text-rendering="geometricPrecision" viewBox="0 0 1706.66 1706.66" width="512" xmlns="http://www.w3.org/2000/svg" xmlns:xodm="http://www.corel.com/coreldraw/odm/2003"><g id="Layer_x0020_1"><g id="_2219994027248"><path d="m1203.46 1434.04h-700.29c-13.44 0-23.14-13.09-19.08-25.98l114.43-365.04c2.61-8.35 10.34-14.02 19.07-14.02h471.46c8.73 0 16.47 5.68 19.08 14.02l114.41 365.04c4.02 12.86-5.61 25.98-19.08 25.98z" fill="#808080"/><path d="m1435.75 1069h-1164.86c-149.28 0-270.72-121.45-270.72-270.73v-517.15c0-149.28 121.44-270.72 270.72-270.72h1164.88c149.29 0 270.74 121.45 270.74 270.72v517.15c-.02 149.28-121.46 270.73-270.76 270.73z" fill="#d7d7d7"/><path d="m1069.83 10.39h363.85v137.56c0 11.04-8.97 20-20 20h-323.86c-11.03 0-20-8.96-20-20v-137.56z" fill="#fa3c48"/><g fill="#9e9e9e"><path d="m853.31 899.89c-198.6 0-360.18-161.58-360.18-360.18 0-198.61 161.58-360.19 360.18-360.19 198.61 0 360.19 161.58 360.19 360.19 0 198.6-161.57 360.19-360.19 360.19z"/><path d="m266.13 779.09c-5.12 0-10.23-1.96-14.13-5.87-129.04-129.12-129.1-337.94 0-467.05 18.63-18.63 46.9 9.67 28.28 28.28-113.41 113.3-113.42 297.21-.01 410.5 12.66 12.65 3.48 34.14-14.13 34.14z"/><path d="m350.54 694.68c-5.12 0-10.24-1.96-14.13-5.86-82.4-82.44-82.44-215.82 0-298.26 18.61-18.61 46.92 9.66 28.29 28.29-66.77 66.77-66.81 174.96-.01 241.7 12.63 12.63 3.54 34.12-14.14 34.12z"/><path d="m1440.5 779.09c-17.62 0-26.81-21.48-14.15-34.14 113.48-113.36 113.39-297.11 0-410.5-18.63-18.63 9.69-46.89 28.29-28.28 129.02 129.17 129.12 337.92 0 467.05-3.91 3.91-9.03 5.87-14.14 5.87z"/><path d="m1356.1 694.68c-17.65 0-26.79-21.5-14.15-34.15 66.83-66.87 66.74-175.03 0-241.7-18.64-18.62 9.68-46.9 28.29-28.28 82.39 82.48 82.47 215.57 0 298.26-3.91 3.93-9.03 5.87-14.14 5.87z"/></g><path d="m1495.5 1696.27h-1284.37c-25.4 0-20-31.19-20-53.35 0-137.22 111.63-248.87 248.85-248.87h826.65c137.22 0 248.85 111.65 248.85 248.87 0 22.21 5.41 53.35-20 53.35z" fill="#c2c2c2"/><path d="m853.31 781.29c-133.2 0-241.57-108.38-241.57-241.59s108.37-241.59 241.57-241.59c133.21 0 241.59 108.37 241.59 241.59 0 133.23-108.38 241.59-241.59 241.59z" fill="#808080"/><path d="m853.31 683.37c-79.22 0-143.66-64.45-143.66-143.68 0-79.22 64.44-143.67 143.66-143.67s143.68 64.45 143.68 143.68-64.46 143.67-143.68 143.67z" fill="#77b5fe"/><path d="m727.11 471.1c21.44-39.3 60.7-67.52 106.83-73.76 13.26 12.18 21.59 29.66 21.59 49.04 0 36.73-29.88 66.6-66.6 66.6-27.99 0-52-17.36-61.83-41.88z" fill="#77b5fe"/><path d="m801.89 539.31c-25.62 0-46.46-20.85-46.46-46.47s20.84-46.47 46.46-46.47 46.47 20.84 46.47 46.47-20.85 46.47-46.47 46.47z" fill="#d6e3ff"/></g></g></svg>